# xmcd CD database file
#
# Track frame offsets:
#	183
#	11338
#	22065
#	35050
#	47535
#	58948
#	69553
#	82138
#	93753
#	106880
#	118845
#	131930
#	145075
#	156195
#	169165
#	183158
#	195580
#	207140
#
# Disc length: 2913 seconds
#
# Revision: 2
# Processed by: cddbd v1.4PL0 Copyright (c) Steve Scherf et al.
# Submitted via: CDex 1.40Release
#
DISCID=fc0b5f12
DTITLE=Jimmy Reed - The Best Of Jimmy Reed
DYEAR=1900
DGENRE=
TTITLE0=Baby, What You Want Me To Do
TTITLE1=Found Love
TTITLE2=Big Boss Man
TTITLE3=Bright Lights, Big City
TTITLE4=Aw Shucks, Hush Your Mouth
TTITLE5=Ain't That Lovin' You Baby
TTITLE6=Honest I Do
TTITLE7=Boogie In The Dark
TTITLE8=You Got Me Dizzy
TTITLE9=Hush Hush
TTITLE10=Shame Shame Shame
TTITLE11=Oh John
TTITLE12=Take Out Some Insurance
TTITLE13=Caress Me Baby
TTITLE14=You Don't Have To Go
TTITLE15=Pretty Thing
TTITLE16=I'm Nervous
TTITLE17=Good Lover
EXTD=
EXTT0=
EXTT1=
EXTT2=
EXTT3=
EXTT4=
EXTT5=
EXTT6=
EXTT7=
EXTT8=
EXTT9=
EXTT10=
EXTT11=
EXTT12=
EXTT13=
EXTT14=
EXTT15=
EXTT16=
EXTT17=
PLAYORDER=
